# Blender v3.4.0 OBJ File: 'cubiclewalls.blend'
# www.blender.org
mtllib cubiclewallsblend.mtl
o cubicle_walls
v 3.163840 0.042798 -0.001888
v 3.127842 0.042798 -0.037952
v 3.127842 3.160018 -0.037951
v 3.163840 3.160018 -0.001887
v 3.127807 0.006768 -0.001923
v 3.160866 0.042798 3.066211
v 3.124834 0.006768 3.066176
v 3.124799 0.042797 3.102205
v 3.160866 3.160017 3.066211
v 3.124799 3.160017 3.102206
v 3.127807 3.196048 -0.001922
v 3.124834 3.196048 3.066176
v 3.091774 3.160018 -0.001957
v 3.091774 0.042798 -0.001958
v 3.088801 3.160018 3.066141
v 3.088801 0.042798 3.066141
v 0.052335 0.042798 -0.043842
v 0.016305 0.042798 -0.007809
v 0.016305 3.160018 -0.007808
v 0.052335 3.160018 -0.043841
v 0.052335 0.006768 -0.007809
v 3.120435 0.042798 -0.043842
v 3.120435 0.006768 -0.007809
v 3.156464 0.042798 -0.007809
v 3.120435 3.160018 -0.043841
v 3.156464 3.160018 -0.007808
v 0.052335 3.196048 -0.007808
v 3.120435 3.196048 -0.007808
v 0.052335 3.160018 0.028225
v 0.052335 0.042798 0.028224
v 3.120435 3.160018 0.028225
v 3.120435 0.042798 0.028224
vt 0.512036 0.487964
vt 0.506578 0.487964
vt 0.506578 0.015757
vt 0.512036 0.015757
vt 0.512036 0.493422
vt 0.976802 0.487964
vt 0.976802 0.493422
vt 0.982260 0.487964
vt 0.976802 0.015757
vt 0.982260 0.015757
vt 0.512036 0.010299
vt 0.976802 0.010299
vt 0.015757 0.487964
vt 0.010299 0.487964
vt 0.010299 0.015757
vt 0.015757 0.015757
vt 0.015757 0.493422
vt 0.480523 0.487964
vt 0.480523 0.493422
vt 0.485981 0.487964
vt 0.480523 0.015757
vt 0.485981 0.015757
vt 0.015757 0.010299
vt 0.480523 0.010299
vt 0.777137 0.986226
vt 0.771674 0.986226
vt 0.771674 0.514019
vt 0.777137 0.514019
vt 0.805454 0.984243
vt 0.797735 0.984243
vt 0.797735 0.519477
vt 0.805454 0.519477
vt 0.740170 0.514019
vt 0.745623 0.514019
vt 0.745623 0.986226
vt 0.740170 0.986226
vt 0.706390 0.519477
vt 0.714109 0.519477
vt 0.714109 0.984243
vt 0.706390 0.984243
vt 0.766221 0.514019
vt 0.766221 0.986226
vt 0.010299 0.519477
vt 0.018018 0.519477
vt 0.018018 0.984243
vt 0.010299 0.984243
vt 0.734706 0.986226
vt 0.734706 0.514019
vt 0.833771 0.984243
vt 0.826052 0.984243
vt 0.826052 0.519477
vt 0.833771 0.519477
vt 0.372503 0.519477
vt 0.372503 0.984243
vt 0.351905 0.519477
vt 0.351905 0.984243
vt 0.854371 0.545755
vt 0.860673 0.543530
vt 0.860673 0.550212
vt 0.860672 0.609232
vt 0.854368 0.611462
vt 0.854371 0.604775
vt 0.860672 0.516249
vt 0.860673 0.522932
vt 0.854371 0.520707
vt 0.854371 0.579727
vt 0.854368 0.573040
vt 0.860673 0.575269
vt 0.854368 0.514019
vt 0.860673 0.581952
vt 0.854368 0.552442
vt 0.860672 0.602550
vt 0.801595 0.989701
vt 0.801595 0.514019
vt 0.710249 0.514019
vt 0.710249 0.989701
vt 0.014158 0.514019
vt 0.014158 0.989701
vt 0.829911 0.989701
vt 0.829911 0.514019
vn 0.7078 0.0000 -0.7065
vn 0.7071 -0.7071 0.0007
vn 0.7064 -0.0000 0.7078
vn 0.7071 0.7071 0.0007
vn -0.7064 0.0000 -0.7078
vn -0.7071 0.7071 -0.0007
vn -0.7078 -0.0000 0.7065
vn -0.7071 -0.7071 -0.0007
vn -0.7071 0.0000 -0.7071
vn 0.0000 -0.7071 -0.7071
vn 0.7071 0.0000 -0.7071
vn 0.0000 0.7071 -0.7071
vn -0.7071 -0.0000 0.7071
vn 0.0000 0.7071 0.7071
vn 0.7071 -0.0000 0.7071
vn 0.0000 -0.7071 0.7071
vn 1.0000 -0.0000 0.0010
vn -1.0000 0.0000 -0.0010
vn 0.0000 0.0000 -1.0000
vn 0.0000 -0.0000 1.0000
vn 0.5779 -0.5774 -0.5768
vn 0.5768 -0.5774 0.5779
vn 0.5779 0.5774 -0.5768
vn 0.5768 0.5774 0.5779
vn -0.5768 0.5774 -0.5779
vn -0.5779 0.5774 0.5768
vn -0.5768 -0.5774 -0.5779
vn -0.5779 -0.5774 0.5768
vn -0.5774 -0.5774 -0.5773
vn 0.5774 -0.5774 -0.5773
vn -0.5774 0.5774 -0.5773
vn 0.5774 0.5774 -0.5773
vn -0.5774 0.5774 0.5773
vn 0.5774 0.5774 0.5773
vn -0.5774 -0.5774 0.5773
vn 0.5774 -0.5774 0.5773
usemtl initialShadingGroup
s 1
f 1/1/1 2/2/1 3/3/1 4/4/1
f 5/5/2 1/1/2 6/6/2 7/7/2
f 8/8/3 6/6/3 9/9/3 10/10/3
f 4/4/4 11/11/4 12/12/4 9/9/4
f 13/13/5 3/14/5 2/15/5 14/16/5
f 11/17/6 13/13/6 15/18/6 12/19/6
f 10/20/7 15/18/7 16/21/7 8/22/7
f 14/16/8 5/23/8 7/24/8 16/21/8
f 17/25/9 18/26/9 19/27/9 20/28/9
f 21/29/10 17/30/10 22/31/10 23/32/10
f 24/33/11 22/34/11 25/35/11 26/36/11
f 20/37/12 27/38/12 28/39/12 25/40/12
f 29/41/13 19/27/13 18/26/13 30/42/13
f 27/43/14 29/44/14 31/45/14 28/46/14
f 26/36/15 31/47/15 32/48/15 24/33/15
f 30/49/16 21/50/16 23/51/16 32/52/16
f 1/1/17 4/4/17 9/9/17 6/6/17
f 13/13/18 14/16/18 16/21/18 15/18/18
f 17/53/19 20/37/19 25/40/19 22/54/19
f 29/44/20 30/55/20 32/56/20 31/45/20
f 2/57/21 1/58/21 5/59/21
f 7/60/22 6/61/22 8/62/22
f 11/63/23 4/64/23 3/65/23
f 10/66/24 9/67/24 12/68/24
f 13/69/25 11/63/25 3/65/25
f 10/66/26 12/68/26 15/70/26
f 5/59/27 14/71/27 2/57/27
f 8/62/28 16/72/28 7/60/28
f 18/73/29 17/30/29 21/29/29
f 23/32/30 22/31/30 24/74/30
f 27/38/31 20/37/31 19/75/31
f 26/76/32 25/40/32 28/39/32
f 29/44/33 27/43/33 19/77/33
f 26/78/34 28/46/34 31/45/34
f 21/50/35 30/49/35 18/79/35
f 24/80/36 32/52/36 23/51/36
