# Blender 3.4.0
# www.blender.org
mtllib door 2 blend.mtl
o door_2
v 0.002886 0.005532 0.036294
v 1.056714 0.005532 0.036294
v 0.002886 2.101828 0.036294
v 1.056714 2.101828 0.036294
v 0.002886 2.101828 -0.036294
v 1.056714 2.101828 -0.036294
v 0.002886 0.005532 -0.036294
v 1.056714 0.005532 -0.036294
v 0.864555 1.074237 0.043530
v 0.960181 1.074237 0.043530
v 0.864555 1.169864 0.043530
v 0.960181 1.169864 0.043530
v 0.864555 1.169864 0.027812
v 0.960181 1.169864 0.027812
v 0.864555 1.074237 0.027812
v 0.960181 1.074237 0.027812
v 0.898444 1.108714 0.111147
v 0.926292 1.108714 0.111147
v 0.898444 1.135387 0.111147
v 0.926292 1.135387 0.111147
v 0.898444 1.135387 0.044760
v 0.926292 1.135387 0.044760
v 0.898444 1.108714 0.044760
v 0.926292 1.108714 0.044760
v 0.829743 1.108714 0.105209
v 0.830523 1.108714 0.133046
v 0.829743 1.135387 0.105209
v 0.830523 1.135387 0.133046
v 0.926375 1.135387 0.102499
v 0.927156 1.135387 0.130336
v 0.926375 1.108714 0.102499
v 0.927156 1.108714 0.130336
v 1.055781 2.030235 0.041369
v 1.055926 2.104542 0.041307
v 0.004988 2.032276 0.039974
v 0.005133 2.106582 0.039911
v 0.004996 2.032271 0.033735
v 0.005141 2.106577 0.033673
v 1.055790 2.030230 0.035131
v 1.055934 2.104536 0.035068
vn -0.0000 -0.0000 1.0000
vn -0.0000 1.0000 -0.0000
vn -0.0000 -0.0000 -1.0000
vn -0.0000 -1.0000 -0.0000
vn 1.0000 -0.0000 -0.0000
vn -1.0000 -0.0000 -0.0000
vn -0.9996 -0.0000 0.0280
vn 0.9996 -0.0000 -0.0280
vn 0.0280 -0.0000 0.9996
vn -0.0280 -0.0000 -0.9996
vn -0.0013 0.0008 1.0000
vn -1.0000 0.0020 -0.0013
vn 0.0013 -0.0008 -1.0000
vn 1.0000 -0.0019 0.0014
vn 0.0019 1.0000 -0.0009
vn -0.0019 -1.0000 0.0008
vt 0.375000 1.000000
vt 0.375000 0.000000
vt 0.625000 1.000000
vt 0.625000 0.000000
vt 0.375000 0.250000
vt 0.625000 0.250000
vt 0.375000 0.500000
vt 0.125000 0.250000
vt 0.625000 0.500000
vt 0.875000 0.250000
vt 0.375000 0.750000
vt 0.125000 0.000000
vt 0.625000 0.750000
vt 0.875000 0.000000
vt 0.184621 0.093980
vt 0.375000 1.000000
vt 0.375000 0.000000
vt 0.094283 0.093980
vt 0.625000 1.000000
vt 0.230899 0.191598
vt 0.184621 0.003638
vt 0.193925 0.191597
vt 0.375000 0.250000
vt 0.094283 0.003638
vt 0.193925 0.101255
vt 0.230899 0.101255
vt 0.208775 0.191597
vt 0.375000 0.500000
vt 0.125000 0.250000
vt 0.208775 0.101255
vt 0.625000 0.500000
vt 0.216050 0.101255
vt 0.375000 0.750000
vt 0.125000 0.000000
vt 0.625000 0.750000
vt 0.216050 0.191598
vt 0.375000 1.000000
vt 0.375000 0.000000
vt 0.625000 0.000000
vt 0.625000 1.000000
vt 0.217095 0.003638
vt 0.186650 0.163973
vt 0.375000 0.250000
vt 0.625000 0.250000
vt 0.160341 0.163973
vt 0.191896 0.003638
vt 0.186650 0.101255
vt 0.375000 0.500000
vt 0.125000 0.250000
vt 0.160341 0.101255
vt 0.625000 0.500000
vt 0.191896 0.066355
vt 0.375000 0.750000
vt 0.125000 0.000000
vt 0.625000 0.750000
vt 0.217095 0.066354
vt 0.375000 1.000000
vt 0.375000 0.000000
vt 0.625000 0.000000
vt 0.625000 1.000000
vt 0.153066 0.101255
vt 0.094283 0.101256
vt 0.375000 0.250000
vt 0.625000 0.250000
vt 0.120592 0.101255
vt 0.127867 0.101255
vt 0.094283 0.192584
vt 0.160341 0.197552
vt 0.125000 0.250000
vt 0.120592 0.192584
vt 0.160341 0.171249
vt 0.127867 0.192567
vt 0.185540 0.197552
vt 0.375000 0.750000
vt 0.125000 0.000000
vt 0.185540 0.171249
vt 0.625000 0.750000
vt 0.153066 0.192567
vt 0.073838 0.996312
vt 0.230264 0.073838
vt 0.375000 0.000000
vt 0.003638 0.996312
vt 0.230264 0.003638
vt 0.087008 0.996363
vt 0.073838 0.003638
vt 0.375000 0.250000
vt 0.003639 0.003639
vt 0.625000 0.250000
vt 0.087008 0.003638
vt 0.375000 0.500000
vt 0.125000 0.250000
vt 0.625000 0.500000
vt 0.081114 0.003638
vt 0.375000 0.750000
vt 0.224371 0.073838
vt 0.125000 0.000000
vt 0.625000 0.750000
vt 0.224370 0.003639
vt 0.081114 0.996362
s 0
usemtl initialShadingGroup
f 1/2/1 2/4/1 4/6/1 3/5/1
f 3/5/2 4/6/2 6/9/2 5/7/2
f 5/7/3 6/9/3 8/13/3 7/11/3
f 7/11/4 8/13/4 2/3/4 1/1/4
f 2/4/5 8/14/5 6/10/5 4/6/5
f 7/12/6 1/2/6 3/5/6 5/8/6
f 9/15/1 10/18/1 12/24/1 11/21/1
f 11/22/2 12/25/2 14/30/2 13/27/2
f 13/28/3 14/31/3 16/35/3 15/33/3
f 15/33/4 16/35/4 10/19/4 9/16/4
f 10/20/5 16/36/5 14/32/5 12/26/5
f 15/34/6 9/17/6 11/23/6 13/29/6
f 17/38/1 18/39/1 20/44/1 19/43/1
f 19/42/2 20/45/2 22/50/2 21/47/2
f 21/48/3 22/51/3 24/55/3 23/53/3
f 23/53/4 24/55/4 18/40/4 17/37/4
f 18/41/5 24/56/5 22/52/5 20/46/5
f 23/54/6 17/38/6 19/43/6 21/49/6
f 25/58/7 26/59/7 28/64/7 27/63/7
f 27/62/2 28/65/2 30/70/2 29/67/2
f 29/68/8 30/71/8 32/76/8 31/73/8
f 31/74/4 32/77/4 26/60/4 25/57/4
f 26/61/9 32/78/9 30/72/9 28/66/9
f 31/75/10 25/58/10 27/63/10 29/69/10
f 33/79/11 34/82/11 36/87/11 35/85/11
f 35/86/12 36/88/12 38/92/12 37/90/12
f 37/90/13 38/92/13 40/97/13 39/94/13
f 39/95/14 40/98/14 34/83/14 33/80/14
f 34/84/15 40/99/15 38/93/15 36/89/15
f 39/96/16 33/81/16 35/86/16 37/91/16
