# Blender v2.92.0 OBJ File: 'mouse1.blend'
# www.blender.org
mtllib mouse1.mtl
o Cube
v 0.500000 -0.013742 -0.300000
v 0.500000 -0.100000 -0.300000
v 0.500000 -0.013742 0.300000
v 0.500000 -0.100000 0.300000
v -0.500000 0.028011 -0.300000
v -0.500000 -0.098529 -0.300000
v -0.500000 0.028011 0.300000
v -0.500000 -0.098529 0.300000
v 0.128350 0.090988 0.300000
v 0.500000 -0.013741 0.000000
v -0.500000 0.067651 0.000000
v 0.128350 0.090988 -0.300000
v 0.128350 0.130627 0.000000
v -0.185825 0.136762 0.300000
v -0.500000 0.052400 -0.150000
v -0.500000 0.052400 0.150000
v -0.185825 0.136762 -0.300000
v 0.128350 0.115376 0.150000
v 0.128350 0.115376 -0.150000
v -0.185825 0.176402 0.000000
v -0.185825 0.161151 -0.150000
v -0.185825 0.161151 0.150000
v -0.342913 0.118400 0.300000
v -0.500000 0.039345 -0.225000
v -0.500000 0.063171 0.075000
v -0.028738 0.118513 -0.300000
v 0.128350 0.102321 0.225000
v 0.128350 0.126147 -0.075000
v -0.028738 0.158153 0.000000
v -0.028738 0.118513 0.300000
v -0.500000 0.063171 -0.075000
v -0.500000 0.039345 0.225000
v -0.342913 0.118400 -0.300000
v 0.128350 0.126147 0.075000
v 0.128350 0.102321 -0.225000
v -0.342913 0.158040 0.000000
v -0.185825 0.171922 -0.075000
v -0.185825 0.148096 -0.225000
v -0.028738 0.142902 -0.150000
v -0.342913 0.142789 -0.150000
v -0.185825 0.148096 0.225000
v -0.185825 0.171922 0.075000
v -0.028738 0.142902 0.150000
v -0.342913 0.142789 0.150000
v -0.342913 0.153560 0.075000
v -0.028738 0.153672 0.075000
v -0.028738 0.129847 0.225000
v -0.342913 0.129734 -0.225000
v -0.028738 0.129847 -0.225000
v -0.028738 0.153672 -0.075000
v -0.342913 0.153560 -0.075000
v -0.342913 0.129734 0.225000
vt 0.843750 0.718750
vt 0.875000 0.718750
vt 0.875000 0.750000
vt 0.843750 0.750000
vt 0.375000 0.750000
vt 0.625000 0.750000
vt 0.625000 0.875000
vt 0.625000 0.906250
vt 0.625000 0.937500
vt 0.625000 0.968750
vt 0.625000 1.000000
vt 0.375000 1.000000
vt 0.375000 0.000000
vt 0.625000 0.000000
vt 0.625000 0.031250
vt 0.625000 0.062500
vt 0.625000 0.093750
vt 0.625000 0.125000
vt 0.625000 0.156250
vt 0.625000 0.187500
vt 0.625000 0.218750
vt 0.625000 0.250000
vt 0.375000 0.250000
vt 0.125000 0.500000
vt 0.375000 0.500000
vt 0.125000 0.750000
vt 0.625000 0.500000
vt 0.625000 0.625000
vt 0.625000 0.281250
vt 0.625000 0.312500
vt 0.625000 0.343750
vt 0.625000 0.375000
vt 0.750000 0.625000
vt 0.750000 0.656250
vt 0.750000 0.687500
vt 0.750000 0.718750
vt 0.750000 0.750000
vt 0.750000 0.500000
vt 0.750000 0.531250
vt 0.750000 0.562500
vt 0.750000 0.593750
vt 0.843750 0.593750
vt 0.875000 0.593750
vt 0.875000 0.625000
vt 0.843750 0.625000
vt 0.781250 0.593750
vt 0.812500 0.593750
vt 0.812500 0.625000
vt 0.781250 0.625000
vt 0.781250 0.531250
vt 0.812500 0.531250
vt 0.812500 0.562500
vt 0.781250 0.562500
vt 0.843750 0.531250
vt 0.875000 0.531250
vt 0.875000 0.562500
vt 0.843750 0.562500
vt 0.781250 0.718750
vt 0.812500 0.718750
vt 0.812500 0.750000
vt 0.781250 0.750000
vt 0.781250 0.656250
vt 0.812500 0.656250
vt 0.812500 0.687500
vt 0.781250 0.687500
vt 0.843750 0.656250
vt 0.875000 0.656250
vt 0.875000 0.687500
vt 0.843750 0.687500
vt 0.812500 0.500000
vt 0.843750 0.500000
vt 0.875000 0.500000
vt 0.781250 0.500000
vn -0.4945 0.8594 0.1299
vn 0.0000 0.0000 1.0000
vn -1.0000 0.0000 0.0000
vn -0.0015 -1.0000 0.0000
vn 1.0000 0.0000 0.0000
vn -0.0000 0.0000 -1.0000
vn 0.3237 0.9441 0.0624
vn 0.3237 0.9441 -0.0624
vn -0.4981 0.8656 -0.0517
vn 0.1152 0.9916 -0.0592
vn 0.1137 0.9788 -0.1704
vn -0.4932 0.8571 -0.1492
vn 0.1141 0.9823 0.1484
vn 0.1142 0.9834 0.1412
vn -0.4949 0.8601 0.1235
vn -0.1149 0.9833 0.1412
vn -0.1159 0.9915 0.0592
vn -0.4981 0.8656 0.0517
vn 0.1709 0.9753 0.1401
vn 0.1723 0.9833 0.0587
vn 0.1152 0.9916 0.0592
vn 0.1707 0.9743 0.1472
vn 0.1701 0.9708 0.1690
vn 0.1137 0.9788 0.1704
vn -0.1144 0.9787 -0.1704
vn -0.1148 0.9822 -0.1484
vn -0.4945 0.8594 -0.1299
vn 0.1701 0.9708 -0.1690
vn 0.1707 0.9743 -0.1472
vn 0.1141 0.9823 -0.1484
vn 0.1723 0.9833 -0.0587
vn 0.1709 0.9753 -0.1401
vn 0.1142 0.9834 -0.1412
vn -0.1159 0.9915 -0.0592
vn -0.1149 0.9833 -0.1412
vn -0.4949 0.8601 -0.1235
vn -0.1148 0.9822 0.1484
vn -0.1144 0.9787 0.1704
vn -0.4932 0.8571 0.1492
usemtl Material
s off
f 52/1/1 32/2/1 7/3/1 23/4/1
f 4/5/2 3/6/2 9/7/2 30/8/2 14/9/2 23/10/2 7/11/2 8/12/2
f 8/13/3 7/14/3 32/15/3 16/16/3 25/17/3 11/18/3 31/19/3 15/20/3 24/21/3 5/22/3 6/23/3
f 6/24/4 2/25/4 4/5/4 8/26/4
f 2/25/5 1/27/5 10/28/5 3/6/5 4/5/5
f 6/23/6 5/22/6 33/29/6 17/30/6 26/31/6 12/32/6 1/27/6 2/25/6
f 10/28/7 13/33/7 34/34/7 18/35/7 27/36/7 9/37/7 3/6/7
f 1/27/8 12/38/8 35/39/8 19/40/8 28/41/8 13/33/8 10/28/8
f 51/42/9 31/43/9 11/44/9 36/45/9
f 50/46/10 37/47/10 20/48/10 29/49/10
f 49/50/11 38/51/11 21/52/11 39/53/11
f 48/54/12 24/55/12 15/56/12 40/57/12
f 47/58/13 41/59/13 14/60/13 30/61/13
f 46/62/14 42/63/14 22/64/14 43/65/14
f 45/66/15 25/67/15 16/68/15 44/69/15
f 42/63/16 45/66/16 44/69/16 22/64/16
f 20/48/17 36/45/17 45/66/17 42/63/17
f 36/45/18 11/44/18 25/67/18 45/66/18
f 34/34/19 46/62/19 43/65/19 18/35/19
f 13/33/20 29/49/20 46/62/20 34/34/20
f 29/49/21 20/48/21 42/63/21 46/62/21
f 27/36/22 47/58/22 30/61/22 9/37/22
f 18/35/23 43/65/23 47/58/23 27/36/23
f 43/65/24 22/64/24 41/59/24 47/58/24
f 38/51/25 48/54/25 40/57/25 21/52/25
f 17/70/26 33/71/26 48/54/26 38/51/26
f 33/71/27 5/72/27 24/55/27 48/54/27
f 35/39/28 49/50/28 39/53/28 19/40/28
f 12/38/29 26/73/29 49/50/29 35/39/29
f 26/73/30 17/70/30 38/51/30 49/50/30
f 28/41/31 50/46/31 29/49/31 13/33/31
f 19/40/32 39/53/32 50/46/32 28/41/32
f 39/53/33 21/52/33 37/47/33 50/46/33
f 37/47/34 51/42/34 36/45/34 20/48/34
f 21/52/35 40/57/35 51/42/35 37/47/35
f 40/57/36 15/56/36 31/43/36 51/42/36
f 41/59/37 52/1/37 23/4/37 14/60/37
f 22/64/38 44/69/38 52/1/38 41/59/38
f 44/69/39 16/68/39 32/2/39 52/1/39
o Cube.001
v 0.187318 0.035935 -0.067440
v 0.209242 0.098519 -0.069735
v 0.187515 0.029817 -0.232376
v 0.209438 0.092402 -0.234671
v 0.382029 -0.032171 -0.064682
v 0.403953 0.030413 -0.066977
v 0.382226 -0.038289 -0.229617
v 0.404150 0.024296 -0.231912
vt 0.375000 0.000000
vt 0.625000 0.000000
vt 0.625000 0.250000
vt 0.375000 0.250000
vt 0.625000 0.500000
vt 0.375000 0.500000
vt 0.625000 0.750000
vt 0.375000 0.750000
vt 0.625000 1.000000
vt 0.375000 1.000000
vt 0.125000 0.500000
vt 0.125000 0.750000
vt 0.875000 0.500000
vt 0.875000 0.750000
vn -0.9438 0.3301 -0.0134
vn 0.0012 -0.0371 -0.9993
vn 0.9438 -0.3301 0.0134
vn -0.0012 0.0371 0.9993
vn -0.3304 -0.9432 0.0346
vn 0.3304 0.9432 -0.0346
usemtl Material.001
s off
f 53/74/40 54/75/40 56/76/40 55/77/40
f 55/77/41 56/76/41 60/78/41 59/79/41
f 59/79/42 60/78/42 58/80/42 57/81/42
f 57/81/43 58/80/43 54/82/43 53/83/43
f 55/84/44 59/79/44 57/81/44 53/85/44
f 60/78/45 56/86/45 54/87/45 58/80/45
o Cube.002
v 0.187509 0.037698 0.235333
v 0.210864 0.099794 0.236523
v 0.187509 0.040862 0.070314
v 0.210864 0.102957 0.071504
v 0.380604 -0.034901 0.233941
v 0.403959 0.027195 0.235132
v 0.380604 -0.031737 0.068922
v 0.403959 0.030358 0.070113
vt 0.375000 0.000000
vt 0.625000 0.000000
vt 0.625000 0.250000
vt 0.375000 0.250000
vt 0.625000 0.500000
vt 0.375000 0.500000
vt 0.625000 0.750000
vt 0.375000 0.750000
vt 0.625000 1.000000
vt 0.375000 1.000000
vt 0.125000 0.500000
vt 0.125000 0.750000
vt 0.875000 0.500000
vt 0.875000 0.750000
vn -0.9360 0.3519 0.0067
vn 0.0000 0.0192 -0.9998
vn 0.9360 -0.3519 -0.0067
vn 0.0000 -0.0192 0.9998
vn -0.3520 -0.9358 -0.0179
vn 0.3520 0.9358 0.0179
usemtl None
s off
f 61/88/46 62/89/46 64/90/46 63/91/46
f 63/91/47 64/90/47 68/92/47 67/93/47
f 67/93/48 68/92/48 66/94/48 65/95/48
f 65/95/49 66/94/49 62/96/49 61/97/49
f 63/98/50 67/93/50 65/95/50 61/99/50
f 68/92/51 64/100/51 62/101/51 66/94/51
