# Blender v2.92.0 OBJ File: 'statue.blend'
# www.blender.org
mtllib statue-green.mtl
o Cube
v 1.007435 6.058640 0.176825
v 0.774771 5.042672 0.238671
v 1.007435 6.058640 -0.176825
v 0.774771 5.042672 -0.238671
v 0.874020 4.123302 0.238671
v 0.874020 4.123302 -0.238671
v 1.020650 2.273010 0.183992
v 1.020650 2.273010 -0.120374
v 0.453975 2.267944 0.400116
v 0.453975 2.267944 -0.336498
v 0.963530 0.218937 0.119711
v 0.963966 0.218844 -0.118900
v 0.518953 0.217247 0.288332
v 0.520010 0.217023 -0.289145
v 0.835143 5.454350 0.176825
v 0.835143 5.454350 -0.176825
v 1.163983 5.915344 0.176825
v 1.163983 5.915344 -0.176825
v 1.371860 5.658580 0.176825
v 1.371860 5.658580 -0.176825
v 1.355931 3.376725 0.115595
v 1.355931 3.376725 -0.115595
v 1.731284 3.383110 0.115595
v 1.731284 3.383110 -0.115595
v 1.462728 3.064920 0.115595
v 1.462728 3.064920 -0.115595
v 1.635096 3.071306 0.115595
v 1.635096 3.071306 -0.115595
v 1.175245 4.611487 -0.151666
v 1.645659 4.734425 -0.151666
v 1.175245 4.611487 0.151666
v 1.645659 4.734425 0.151666
v 0.519925 -0.028518 0.288430
v 0.520981 -0.028741 -0.289048
v 0.964501 -0.026827 0.119809
v 0.964938 -0.026920 -0.118803
v 0.903064 0.114194 0.871436
v 0.565042 0.112503 0.963947
v 0.904035 -0.025826 0.871533
v 0.566014 -0.027517 0.964044
v 0.573326 0.385669 -0.214132
v 0.902169 0.387163 -0.088092
v 0.572615 0.385820 0.213585
v 0.901874 0.387226 0.088638
v 0.364418 6.427555 -0.127002
v 0.364418 6.427555 0.054747
v 0.308947 6.733475 -0.016595
v 0.308947 6.733475 0.165154
v 0.546513 6.941002 -0.250946
v 0.546513 6.941002 0.149010
v 0.319283 7.603258 -0.234680
v 0.463497 7.608209 0.123471
v 0.269321 6.989233 0.389518
v 0.287624 7.223275 0.406460
v 0.235703 7.467422 0.405569
v -1.007435 6.058640 0.176825
v -0.774771 5.042672 0.238671
v -1.007435 6.058640 -0.176825
v -0.774771 5.042672 -0.238671
v 0.000000 6.194415 0.346999
v 0.000000 5.042672 0.577621
v 0.000000 6.179530 -0.474579
v 0.000000 5.042672 -0.577621
v -0.874020 4.123302 0.238671
v -0.874020 4.123302 -0.238671
v 0.000000 3.962103 0.577621
v 0.000000 3.962103 -0.577622
v -1.020650 2.273010 0.183992
v -1.020650 2.273010 -0.120374
v -0.453975 2.267944 0.400116
v -0.453975 2.267944 -0.336498
v -0.963530 0.218937 0.119711
v -0.963966 0.218844 -0.118900
v -0.518953 0.217247 0.288332
v -0.520010 0.217023 -0.289145
v -0.835143 5.454350 0.176825
v 0.000000 5.390122 -0.577621
v -0.835143 5.454350 -0.176825
v 0.000000 5.487103 0.510947
v -1.163983 5.915344 0.176825
v -1.163983 5.915344 -0.176825
v -1.371860 5.658580 0.176825
v -1.371860 5.658580 -0.176825
v -1.355931 3.376725 0.115595
v -1.355931 3.376725 -0.115595
v -1.731284 3.383110 0.115595
v -1.731284 3.383110 -0.115595
v -1.462728 3.064920 0.115595
v -1.462728 3.064920 -0.115595
v -1.635096 3.071306 0.115595
v -1.635096 3.071306 -0.115595
v -1.175245 4.611487 -0.151666
v -1.645659 4.734425 -0.151666
v -1.175245 4.611487 0.151666
v -1.645659 4.734425 0.151666
v -0.519925 -0.028518 0.288430
v -0.520981 -0.028741 -0.289048
v -0.964501 -0.026827 0.119809
v -0.964938 -0.026920 -0.118803
v -0.903064 0.114194 0.871436
v -0.565042 0.112503 0.963947
v -0.904035 -0.025826 0.871533
v -0.566014 -0.027517 0.964044
v -0.573326 0.385669 -0.214132
v -0.902169 0.387163 -0.088092
v -0.572615 0.385820 0.213585
v -0.901874 0.387226 0.088638
v -0.364418 6.427555 -0.127002
v 0.000000 6.436351 -0.332980
v -0.364418 6.427555 0.054747
v 0.000000 6.438213 0.107938
v -0.308947 6.733475 -0.016595
v 0.000000 6.851375 -0.261897
v -0.308947 6.733475 0.165154
v 0.000000 6.671241 0.282435
v -0.546513 6.941002 -0.250946
v 0.000000 7.226644 -0.481226
v -0.546513 6.941002 0.149010
v -0.319283 7.603258 -0.234680
v 0.000000 7.770631 -0.372948
v -0.463497 7.608209 0.123471
v 0.000000 7.935636 0.083915
v 0.000000 6.902108 0.391636
v -0.269321 6.989233 0.389518
v 0.000000 7.230952 0.444774
v -0.287624 7.223275 0.406460
v 0.000000 7.603921 0.443883
v -0.235703 7.467422 0.405569
vt 0.625000 0.500000
vt 0.625000 0.250000
vt 0.625000 0.250000
vt 0.625000 0.500000
vt 0.444044 0.750000
vt 0.625000 0.750000
vt 0.625000 1.000000
vt 0.444044 1.000000
vt 0.375000 0.750000
vt 0.375000 1.000000
vt 0.375000 1.000000
vt 0.375000 0.750000
vt 0.444044 0.750000
vt 0.625000 0.750000
vt 0.444044 0.250000
vt 0.444044 0.500000
vt 0.375000 0.500000
vt 0.375000 0.750000
vt 0.375000 0.500000
vt 0.375000 0.500000
vt 0.375000 0.250000
vt 0.375000 0.250000
vt 0.375000 0.750000
vt 0.375000 1.000000
vt 0.375000 1.000000
vt 0.375000 0.750000
vt 0.375000 0.250000
vt 0.375000 1.000000
vt 0.000000 0.000000
vt 0.000000 0.000000
vt 0.000000 0.000000
vt 0.000000 0.000000
vt 0.375000 0.500000
vt 0.375000 0.750000
vt 0.375000 0.500000
vt 0.000000 0.000000
vt 0.000000 0.000000
vt 0.000000 0.000000
vt 0.000000 0.000000
vt 0.375000 0.500000
vt 0.375000 0.250000
vt 0.375000 0.250000
vt 0.444044 0.500000
vt 0.625000 0.500000
vt 0.444044 0.750000
vt 0.444044 0.750000
vt 0.444044 0.750000
vt 0.444044 0.750000
vt 0.444044 0.750000
vt 0.444044 0.750000
vt 0.444043 0.500000
vt 0.444044 0.500000
vt 0.444044 0.500000
vt 0.444044 0.500000
vt 0.444044 0.500000
vt 0.444044 0.500000
vt 0.125000 0.500000
vt 0.125000 0.750000
vt 0.375000 0.500000
vt 0.375000 0.250000
vt 0.375000 1.000000
vt 0.000000 0.000000
vt 0.000000 0.000000
vt 0.375000 0.500000
vt 0.375000 0.250000
vt 0.125000 0.500000
vt 0.000000 0.000000
vt 0.000000 0.000000
vt 0.625000 1.000000
vt 0.625000 0.750000
vt 0.625000 0.750000
vt 0.625000 1.000000
vt 0.625000 0.500000
vt 0.625000 0.500000
vt 0.625000 0.500000
vt 0.625000 0.500000
vt 0.625000 0.250000
vt 0.625000 0.500000
vt 0.625000 1.000000
vt 0.625000 0.750000
vt 0.625000 0.750000
vt 0.625000 1.000000
vt 0.875000 0.500000
vt 0.875000 0.750000
vt 0.625000 0.250000
vt 0.625000 0.500000
vt 0.625000 0.250000
vt 0.625000 0.250000
vt 0.875000 0.500000
vt 0.625000 0.500000
vt 0.625000 0.500000
vt 0.444044 0.750000
vt 0.625000 0.750000
vt 0.375000 0.750000
vt 0.375000 0.750000
vt 0.625000 0.750000
vt 0.444044 0.750000
vt 0.444044 0.500000
vt 0.375000 0.500000
vt 0.375000 0.500000
vt 0.375000 0.750000
vt 0.375000 0.500000
vt 0.375000 0.750000
vt 0.375000 0.750000
vt 0.375000 1.000000
vt 0.375000 1.000000
vt 0.375000 0.250000
vt 0.375000 1.000000
vt 0.000000 0.000000
vt 0.000000 0.000000
vt 0.375000 0.500000
vt 0.375000 0.500000
vt 0.375000 0.750000
vt 0.000000 0.000000
vt 0.000000 0.000000
vt 0.000000 0.000000
vt 0.000000 0.000000
vt 0.375000 0.500000
vt 0.375000 0.250000
vt 0.375000 0.250000
vt 0.444044 0.500000
vt 0.625000 0.500000
vt 0.444044 0.750000
vt 0.444044 0.750000
vt 0.444044 0.750000
vt 0.444044 0.750000
vt 0.444044 0.750000
vt 0.444044 0.750000
vt 0.444044 0.500000
vt 0.444043 0.500000
vt 0.444044 0.500000
vt 0.444044 0.500000
vt 0.444044 0.500000
vt 0.444044 0.500000
vt 0.125000 0.500000
vt 0.125000 0.750000
vt 0.375000 0.250000
vt 0.375000 0.500000
vt 0.375000 1.000000
vt 0.000000 0.000000
vt 0.000000 0.000000
vt 0.375000 0.250000
vt 0.375000 0.500000
vt 0.125000 0.500000
vt 0.000000 0.000000
vt 0.000000 0.000000
vt 0.625000 0.750000
vt 0.625000 0.750000
vt 0.625000 0.500000
vt 0.625000 0.500000
vt 0.625000 0.500000
vt 0.625000 0.500000
vt 0.625000 0.500000
vt 0.625000 0.750000
vt 0.625000 0.750000
vt 0.625000 0.500000
vn -0.1896 -0.6386 -0.7458
vn -0.3551 -0.0252 0.9345
vn -0.3786 -0.0188 0.9254
vn -0.0000 -0.0000 1.0000
vn -0.2702 -0.0844 -0.9591
vn -0.9969 -0.0790 0.0000
vn -0.9942 -0.1073 0.0000
vn -0.3786 -0.0188 -0.9254
vn -0.3416 -0.2894 0.8942
vn -0.3595 0.0002 -0.9331
vn -0.3626 0.0330 0.9313
vn 0.9659 0.2588 0.0000
vn -1.0000 -0.0040 -0.0018
vn 0.9532 -0.3024 0.0018
vn -0.9388 -0.3443 -0.0015
vn -0.3385 -0.2893 -0.8954
vn -0.3853 -0.1104 -0.9162
vn -0.9894 0.1451 0.0000
vn -0.4158 -0.0409 0.9085
vn -0.7772 -0.6292 0.0000
vn 0.0000 0.0000 -1.0000
vn -0.6752 -0.7376 0.0000
vn -0.0042 0.0275 0.9996
vn 0.9895 0.1448 0.0000
vn -0.0042 0.0275 -0.9996
vn -0.9980 -0.0632 0.0000
vn -0.0370 0.9993 0.0000
vn 0.9460 0.3240 0.0000
vn -0.9556 0.2948 0.0000
vn -0.9588 -0.2841 0.0000
vn -0.0083 0.0256 -0.9996
vn 0.9274 0.3742 0.0000
vn -0.0083 0.0256 0.9996
vn -0.0040 1.0000 -0.0004
vn -0.0443 -0.9884 -0.1455
vn -0.3580 -0.0010 0.9337
vn 1.0000 0.0040 0.0018
vn -0.2640 -0.0025 -0.9645
vn -0.9967 -0.0051 -0.0805
vn -0.0048 1.0000 -0.0015
vn 0.9977 0.0050 -0.0677
vn -0.3554 0.0697 -0.9321
vn -0.9980 0.0628 -0.0006
vn 0.9980 0.0631 0.0006
vn -0.3569 0.0382 0.9334
vn -0.5712 -0.2414 0.7845
vn -0.3302 -0.5696 0.7527
vn -0.4976 -0.8674 0.0000
vn -0.7530 -0.1302 -0.6450
vn -0.2523 0.4318 -0.8660
vn -0.9840 -0.1784 0.0000
vn -0.4624 -0.1768 0.8689
vn -0.6579 0.7531 0.0000
vn -0.1201 0.6399 0.7590
vn -0.5575 -0.7875 0.2629
vn -0.2998 0.5227 -0.7981
vn -0.9576 -0.2222 0.1836
vn -0.0897 0.1259 -0.9880
vn -0.1490 -0.0154 -0.9887
vn -0.5823 0.3387 -0.7390
vn -0.4290 -0.6482 -0.6292
vn 0.1896 -0.6386 -0.7458
vn 0.3551 -0.0252 0.9345
vn 0.3786 -0.0188 0.9254
vn 0.2702 -0.0844 -0.9591
vn 0.9969 -0.0790 0.0000
vn 0.9942 -0.1073 0.0000
vn 0.3786 -0.0188 -0.9254
vn 0.3416 -0.2894 0.8942
vn 0.3595 0.0002 -0.9331
vn 0.3626 0.0330 0.9313
vn -0.9659 0.2588 0.0000
vn 1.0000 -0.0040 -0.0018
vn -0.9532 -0.3024 0.0018
vn 0.9388 -0.3443 -0.0015
vn 0.3385 -0.2893 -0.8954
vn 0.3853 -0.1104 -0.9162
vn 0.9894 0.1451 0.0000
vn 0.4158 -0.0409 0.9085
vn 0.7772 -0.6292 0.0000
vn 0.6752 -0.7376 0.0000
vn 0.0042 0.0275 0.9996
vn -0.9895 0.1448 0.0000
vn 0.0042 0.0275 -0.9996
vn 0.9980 -0.0632 0.0000
vn 0.0370 0.9993 0.0000
vn -0.9460 0.3240 0.0000
vn 0.9556 0.2948 0.0000
vn 0.9588 -0.2841 0.0000
vn 0.0083 0.0256 -0.9996
vn -0.9274 0.3742 0.0000
vn 0.0083 0.0256 0.9996
vn 0.0040 1.0000 -0.0004
vn 0.0443 -0.9884 -0.1455
vn 0.3580 -0.0010 0.9337
vn -1.0000 0.0040 0.0018
vn 0.2640 -0.0025 -0.9645
vn 0.9967 -0.0051 -0.0805
vn 0.0048 1.0000 -0.0015
vn -0.9977 0.0050 -0.0677
vn 0.3554 0.0697 -0.9321
vn 0.9980 0.0628 -0.0006
vn -0.9980 0.0631 0.0006
vn 0.3569 0.0382 0.9334
vn 0.5712 -0.2414 0.7845
vn 0.3302 -0.5696 0.7527
vn 0.4976 -0.8674 0.0000
vn 0.7530 -0.1302 -0.6450
vn 0.2523 0.4318 -0.8660
vn 0.9840 -0.1784 0.0000
vn 0.4624 -0.1768 0.8689
vn 0.6579 0.7531 0.0000
vn 0.1201 0.6399 0.7590
vn 0.5575 -0.7875 0.2629
vn 0.2998 0.5227 -0.7981
vn 0.9576 -0.2222 0.1836
vn 0.0897 0.1259 -0.9880
vn 0.1490 -0.0154 -0.9887
vn 0.5823 0.3387 -0.7390
vn 0.4290 -0.6482 -0.6292
usemtl Material
s off
f 1/1/1 60/2/1 111/3/1 46/4/1
f 16/5/2 3/6/2 62/7/2 77/8/2
f 4/9/3 63/10/3 67/11/3 6/12/3
f 3/6/4 16/5/4 20/13/4 18/14/4
f 79/15/5 60/2/5 1/1/5 15/16/5
f 5/17/6 6/12/6 8/18/6 7/19/6
f 2/20/7 4/9/7 6/12/7 5/17/7
f 61/21/8 2/20/8 5/17/8 66/22/8
f 42/23/9 41/24/9 14/25/9 12/26/9
f 66/22/10 5/17/10 7/19/10 9/27/10
f 6/12/11 67/11/11 10/28/11 8/18/11
f 67/29/12 66/30/12 9/31/12 10/32/12
f 11/33/13 12/26/13 36/34/13 35/35/13
f 41/36/14 43/37/14 13/38/14 14/39/14
f 44/40/15 42/23/15 12/26/15 11/33/15
f 43/41/16 44/40/16 11/33/16 13/42/16
f 61/21/17 79/15/17 15/16/17 2/20/17
f 2/20/18 15/16/18 16/5/18 4/9/18
f 4/9/19 16/5/19 77/8/19 63/10/19
f 19/43/20 17/44/20 18/14/20 20/13/20
f 15/16/21 1/1/21 17/44/21 19/43/21
f 1/1/22 3/6/22 18/14/22 17/44/22
f 30/45/23 29/46/23 22/47/23 24/48/23
f 24/48/4 22/47/4 26/49/4 28/50/4
f 29/46/24 31/51/24 21/52/24 22/47/24
f 31/51/25 32/53/25 23/54/25 21/52/25
f 32/53/26 30/45/26 24/48/26 23/54/26
f 26/49/27 25/55/27 27/56/27 28/50/27
f 22/47/28 21/52/28 25/55/28 26/49/28
f 21/52/21 23/54/21 27/56/21 25/55/21
f 23/54/29 24/48/29 28/50/29 27/56/29
f 19/43/30 20/13/30 30/45/30 32/53/30
f 15/16/31 19/43/31 32/53/31 31/51/31
f 16/5/32 15/16/32 31/51/32 29/46/32
f 20/13/33 16/5/33 29/46/33 30/45/33
f 33/57/34 35/35/34 36/34/34 34/58/34
f 13/42/35 11/33/35 37/59/35 38/60/35
f 12/26/36 14/25/36 34/61/36 36/34/36
f 14/39/37 13/38/37 33/62/37 34/63/37
f 38/60/38 37/59/38 39/64/38 40/65/38
f 11/33/39 35/35/39 39/64/39 37/59/39
f 35/35/40 33/57/40 40/66/40 39/64/40
f 33/62/41 13/38/41 38/67/41 40/68/41
f 9/27/42 7/19/42 44/40/42 43/41/42
f 7/19/43 8/18/43 42/23/43 44/40/43
f 10/32/44 9/31/44 43/37/44 41/36/44
f 8/18/45 10/28/45 41/24/45 42/23/45
f 109/69/46 45/70/46 47/71/46 113/72/46
f 62/7/47 3/6/47 45/70/47 109/69/47
f 3/6/48 1/1/48 46/4/48 45/70/48
f 52/73/49 50/74/49 54/75/49 55/76/49
f 46/4/50 111/3/50 115/77/50 48/78/50
f 45/70/51 46/4/51 48/78/51 47/71/51
f 117/79/52 49/80/52 51/81/52 120/82/52
f 47/71/53 48/78/53 50/74/53 49/80/53
f 113/72/54 47/71/54 49/80/54 117/79/54
f 52/73/55 122/83/55 120/84/55 51/81/55
f 48/78/56 115/77/56 123/85/56 53/86/56
f 49/80/57 50/74/57 52/73/57 51/81/57
f 53/86/58 123/85/58 125/87/58 54/75/58
f 54/75/59 125/87/59 127/88/59 55/76/59
f 50/74/60 48/78/60 53/86/60 54/75/60
f 122/83/61 52/73/61 55/76/61 127/89/61
f 56/90/62 110/91/62 111/3/62 60/2/62
f 78/92/63 77/8/63 62/7/63 58/93/63
f 59/94/64 65/95/64 67/11/64 63/10/64
f 58/93/4 81/96/4 83/97/4 78/92/4
f 79/15/65 76/98/65 56/90/65 60/2/65
f 64/99/66 68/100/66 69/101/66 65/95/66
f 57/102/67 64/99/67 65/95/67 59/94/67
f 61/21/68 66/22/68 64/99/68 57/102/68
f 105/103/69 73/104/69 75/105/69 104/106/69
f 66/22/70 70/107/70 68/100/70 64/99/70
f 65/95/71 69/101/71 71/108/71 67/11/71
f 67/29/72 71/109/72 70/110/72 66/30/72
f 72/111/73 98/112/73 99/113/73 73/104/73
f 104/114/74 75/115/74 74/116/74 106/117/74
f 107/118/75 72/111/75 73/104/75 105/103/75
f 106/119/76 74/120/76 72/111/76 107/118/76
f 61/21/77 57/102/77 76/98/77 79/15/77
f 57/102/78 59/94/78 78/92/78 76/98/78
f 59/94/79 63/10/79 77/8/79 78/92/79
f 82/121/80 83/97/80 81/96/80 80/122/80
f 76/98/21 82/121/21 80/122/21 56/90/21
f 56/90/81 80/122/81 81/96/81 58/93/81
f 93/123/82 87/124/82 85/125/82 92/126/82
f 87/124/4 91/127/4 89/128/4 85/125/4
f 92/126/83 85/125/83 84/129/83 94/130/83
f 94/130/84 84/129/84 86/131/84 95/132/84
f 95/132/85 86/131/85 87/124/85 93/123/85
f 89/128/86 91/127/86 90/133/86 88/134/86
f 85/125/87 89/128/87 88/134/87 84/129/87
f 84/129/21 88/134/21 90/133/21 86/131/21
f 86/131/88 90/133/88 91/127/88 87/124/88
f 82/121/89 95/132/89 93/123/89 83/97/89
f 76/98/90 94/130/90 95/132/90 82/121/90
f 78/92/91 92/126/91 94/130/91 76/98/91
f 83/97/92 93/123/92 92/126/92 78/92/92
f 96/135/93 97/136/93 99/113/93 98/112/93
f 74/120/94 101/137/94 100/138/94 72/111/94
f 73/104/95 99/113/95 97/139/95 75/105/95
f 75/115/96 97/140/96 96/141/96 74/116/96
f 101/137/97 103/142/97 102/143/97 100/138/97
f 72/111/98 100/138/98 102/143/98 98/112/98
f 98/112/99 102/143/99 103/144/99 96/135/99
f 96/141/100 103/145/100 101/146/100 74/116/100
f 70/107/101 106/119/101 107/118/101 68/100/101
f 68/100/102 107/118/102 105/103/102 69/101/102
f 71/109/103 104/114/103 106/117/103 70/110/103
f 69/101/104 105/103/104 104/106/104 71/108/104
f 109/69/105 113/72/105 112/147/105 108/148/105
f 62/7/106 109/69/106 108/148/106 58/93/106
f 58/93/107 108/148/107 110/91/107 56/90/107
f 121/149/108 128/150/108 126/151/108 118/152/108
f 110/91/109 114/153/109 115/77/109 111/3/109
f 108/148/110 112/147/110 114/153/110 110/91/110
f 117/79/111 120/82/111 119/154/111 116/155/111
f 112/147/112 116/155/112 118/152/112 114/153/112
f 113/72/113 117/79/113 116/155/113 112/147/113
f 121/149/114 119/154/114 120/84/114 122/83/114
f 114/153/115 124/156/115 123/85/115 115/77/115
f 116/155/116 119/154/116 121/149/116 118/152/116
f 124/156/117 126/151/117 125/87/117 123/85/117
f 126/151/118 128/150/118 127/88/118 125/87/118
f 118/152/119 126/151/119 124/156/119 114/153/119
f 122/83/120 127/89/120 128/150/120 121/149/120
