# Blender 3.4.0
# www.blender.org
mtllib windowblend.mtl
o window
v 0.001689 -0.007978 -0.003433
v 0.106874 -0.007978 -0.003408
v 0.212059 -0.007977 -0.003383
v 0.317244 -0.007977 -0.003358
v 0.422429 -0.007976 -0.003333
v 0.527615 -0.007976 -0.003308
v 0.632800 -0.007975 -0.003284
v 0.737985 -0.007975 -0.003259
v 0.843170 -0.007974 -0.003234
v 0.948355 -0.007974 -0.003209
v 1.053540 -0.007973 -0.003184
v 0.001688 0.163870 -0.002425
v 0.106873 0.163871 -0.002401
v 0.212058 0.163872 -0.002376
v 0.317243 0.163872 -0.002351
v 0.422428 0.163873 -0.002326
v 0.527613 0.163873 -0.002301
v 0.632799 0.163874 -0.002276
v 0.737984 0.163874 -0.002252
v 0.843169 0.163875 -0.002227
v 0.948354 0.163875 -0.002202
v 1.053539 0.163876 -0.002177
v 0.001687 0.335719 -0.001418
v 0.106872 0.335720 -0.001393
v 0.212057 0.335720 -0.001368
v 0.317242 0.335721 -0.001344
v 0.422427 0.335721 -0.001319
v 0.527612 0.335722 -0.001294
v 0.632798 0.335722 -0.001269
v 0.737983 0.335723 -0.001244
v 0.843168 0.335723 -0.001220
v 0.948353 0.335724 -0.001195
v 1.053538 0.335724 -0.001170
v 0.001685 0.507568 -0.000411
v 0.106871 0.507569 -0.000386
v 0.212056 0.507569 -0.000361
v 0.317241 0.507570 -0.000336
v 0.422426 0.507570 -0.000312
v 0.527611 0.507571 -0.000287
v 0.632797 0.507571 -0.000262
v 0.737982 0.507572 -0.000237
v 0.843167 0.507572 -0.000212
v 0.948352 0.507573 -0.000187
v 1.053537 0.507573 -0.000163
v 0.001684 0.679417 0.000596
v 0.106870 0.679418 0.000621
v 0.212055 0.679418 0.000646
v 0.317240 0.679419 0.000671
v 0.422425 0.679419 0.000696
v 0.527610 0.679420 0.000720
v 0.632795 0.679420 0.000745
v 0.737981 0.679421 0.000770
v 0.843166 0.679421 0.000795
v 0.948351 0.679422 0.000820
v 1.053536 0.679422 0.000845
v 0.001683 0.851266 0.001604
v 0.106868 0.851267 0.001628
v 0.212054 0.851267 0.001653
v 0.317239 0.851268 0.001678
v 0.422424 0.851268 0.001703
v 0.527609 0.851269 0.001728
v 0.632794 0.851269 0.001753
v 0.737980 0.851270 0.001777
v 0.843165 0.851270 0.001802
v 0.948350 0.851271 0.001827
v 1.053535 0.851271 0.001852
v 0.001682 1.023115 0.002611
v 0.106867 1.023116 0.002636
v 0.212053 1.023116 0.002660
v 0.317238 1.023117 0.002685
v 0.422423 1.023117 0.002710
v 0.527608 1.023118 0.002735
v 0.632793 1.023118 0.002760
v 0.737978 1.023119 0.002785
v 0.843164 1.023119 0.002809
v 0.948349 1.023120 0.002834
v 1.053534 1.023120 0.002859
v 0.001681 1.194964 0.003618
v 0.106866 1.194964 0.003643
v 0.212052 1.194965 0.003668
v 0.317237 1.194965 0.003692
v 0.422422 1.194966 0.003717
v 0.527607 1.194966 0.003742
v 0.632792 1.194967 0.003767
v 0.737977 1.194967 0.003792
v 0.843163 1.194968 0.003817
v 0.948348 1.194968 0.003841
v 1.053533 1.194969 0.003866
v 0.001680 1.366813 0.004625
v 0.106865 1.366813 0.004650
v 0.212050 1.366814 0.004675
v 0.317236 1.366814 0.004700
v 0.422421 1.366815 0.004725
v 0.527606 1.366815 0.004749
v 0.632791 1.366816 0.004774
v 0.737976 1.366816 0.004799
v 0.843162 1.366817 0.004824
v 0.948347 1.366817 0.004849
v 1.053532 1.366818 0.004873
v 0.001679 1.538662 0.005632
v 0.106864 1.538662 0.005657
v 0.212049 1.538663 0.005682
v 0.317235 1.538663 0.005707
v 0.422420 1.538664 0.005732
v 0.527605 1.538664 0.005757
v 0.632790 1.538665 0.005781
v 0.737975 1.538665 0.005806
v 0.843160 1.538666 0.005831
v 0.948346 1.538666 0.005856
v 1.053531 1.538667 0.005881
v 0.001678 1.710511 0.006640
v 0.106863 1.710511 0.006665
v 0.212048 1.710512 0.006689
v 0.317234 1.710512 0.006714
v 0.422419 1.710513 0.006739
v 0.527604 1.710513 0.006764
v 0.632789 1.710514 0.006789
v 0.737974 1.710514 0.006813
v 0.843159 1.710515 0.006838
v 0.948345 1.710515 0.006863
v 1.053530 1.710516 0.006888
v -0.000173 -0.047729 0.175563
v 1.046970 -0.047729 0.175563
v -0.000173 0.047729 0.175563
v 1.046970 0.047729 0.175563
v -0.000173 0.047729 -0.001962
v 1.046970 0.047729 -0.001962
v -0.000173 -0.047729 -0.001962
v 1.046970 -0.047729 -0.001962
v 0.000402 0.037152 0.020429
v 0.161404 0.037152 0.020429
v 0.000402 1.707431 0.020429
v 0.161404 1.707431 0.020429
v 0.000402 1.707431 0.003055
v 0.161404 1.707431 0.003055
v 0.000402 0.037152 0.003055
v 0.161404 0.037152 0.003055
v 0.887331 0.030893 0.020701
v 1.048333 0.030893 0.020701
v 0.887331 1.701171 0.020701
v 1.048333 1.701171 0.020701
v 0.887331 1.701171 0.003327
v 1.048333 1.701171 0.003327
v 0.887331 0.030893 0.003327
v 1.048333 0.030893 0.003327
v 0.016613 1.706075 0.022138
v 0.015464 1.545077 0.022138
v 1.047362 1.698716 0.022138
v 1.046213 1.537718 0.022138
v 1.047362 1.698716 0.004764
v 1.046213 1.537718 0.004764
v 0.016613 1.706075 0.004764
v 0.015464 1.545077 0.004764
v -0.002007 0.038738 0.084768
v 0.082912 0.038738 0.084768
v -0.002007 1.737978 0.084768
v 0.082912 1.737978 0.084768
v -0.002007 1.737978 0.018812
v 0.082912 1.737978 0.018812
v -0.002007 0.038738 0.018812
v 0.082912 0.038738 0.018812
v 0.968548 0.048582 0.084768
v 1.053468 0.048582 0.084768
v 0.968548 1.723191 0.084768
v 1.053468 1.723191 0.084768
v 0.968548 1.723191 0.018812
v 1.053468 1.723191 0.018812
v 0.968548 0.048582 0.018812
v 1.053468 0.048582 0.018812
v 0.002414 1.749126 0.084768
v 0.002349 1.664206 0.084768
v 1.053038 1.748332 0.084768
v 1.052974 1.663413 0.084768
v 1.053038 1.748332 0.018812
v 1.052974 1.663413 0.018812
v 0.002414 1.749126 0.018812
v 0.002349 1.664206 0.018812
v 0.016432 1.343642 0.022138
v 0.015645 1.233452 0.022138
v 1.047181 1.336283 0.022138
v 1.046394 1.226093 0.022138
v 1.047181 1.336283 0.004764
v 1.046394 1.226093 0.004764
v 0.016432 1.343642 0.004764
v 0.015645 1.233452 0.004764
vn -0.0002 -0.0059 1.0000
vn -0.0000 -0.0000 1.0000
vn -0.0000 1.0000 -0.0000
vn -0.0000 -0.0000 -1.0000
vn -0.0000 -1.0000 -0.0000
vn 1.0000 -0.0000 -0.0000
vn -1.0000 -0.0000 -0.0000
vn 1.0000 -0.0071 -0.0000
vn -1.0000 0.0071 -0.0000
vn -0.0071 -1.0000 -0.0000
vn 0.0071 1.0000 -0.0000
vn 1.0000 -0.0008 -0.0000
vn -1.0000 0.0008 -0.0000
vn -0.0008 -1.0000 -0.0000
vn 0.0008 1.0000 -0.0000
vt 0.000000 0.000000
vt 0.037114 0.000000
vt 0.074228 0.000000
vt 0.111342 0.000000
vt 0.148456 0.000000
vt 0.185571 0.000000
vt 0.222685 0.000000
vt 0.259799 0.000000
vt 0.296913 0.000000
vt 0.334027 0.000000
vt 0.371141 0.000000
vt 0.000000 0.060637
vt 0.037114 0.060637
vt 0.074228 0.060637
vt 0.111342 0.060637
vt 0.148456 0.060637
vt 0.185571 0.060637
vt 0.222685 0.060637
vt 0.259799 0.060637
vt 0.296913 0.060637
vt 0.334027 0.060637
vt 0.371141 0.060637
vt 0.000000 0.121274
vt 0.037114 0.121274
vt 0.074228 0.121274
vt 0.111342 0.121274
vt 0.148456 0.121274
vt 0.185571 0.121274
vt 0.222685 0.121274
vt 0.259799 0.121274
vt 0.296913 0.121274
vt 0.334027 0.121274
vt 0.371141 0.121274
vt 0.000000 0.181911
vt 0.037114 0.181911
vt 0.074228 0.181911
vt 0.111342 0.181911
vt 0.148456 0.181911
vt 0.185571 0.181911
vt 0.222685 0.181911
vt 0.259799 0.181911
vt 0.296913 0.181911
vt 0.334027 0.181911
vt 0.371141 0.181911
vt 0.000000 0.242548
vt 0.037114 0.242549
vt 0.074228 0.242548
vt 0.111342 0.242549
vt 0.148457 0.242548
vt 0.185571 0.242549
vt 0.222685 0.242548
vt 0.259799 0.242549
vt 0.296913 0.242548
vt 0.334027 0.242549
vt 0.371141 0.242548
vt 0.000000 0.303186
vt 0.037114 0.303186
vt 0.074228 0.303186
vt 0.111342 0.303186
vt 0.148457 0.303186
vt 0.185571 0.303186
vt 0.222685 0.303186
vt 0.259799 0.303186
vt 0.296913 0.303186
vt 0.334027 0.303186
vt 0.371141 0.303186
vt 0.000000 0.363823
vt 0.037114 0.363823
vt 0.074228 0.363823
vt 0.111342 0.363823
vt 0.148457 0.363823
vt 0.185571 0.363823
vt 0.222685 0.363823
vt 0.259799 0.363823
vt 0.296913 0.363823
vt 0.334027 0.363823
vt 0.371141 0.363823
vt 0.000000 0.424460
vt 0.037114 0.424460
vt 0.074228 0.424460
vt 0.111342 0.424460
vt 0.148457 0.424460
vt 0.185571 0.424460
vt 0.222685 0.424460
vt 0.259799 0.424460
vt 0.296913 0.424460
vt 0.334027 0.424460
vt 0.371141 0.424460
vt 0.000000 0.485097
vt 0.037114 0.485097
vt 0.074228 0.485097
vt 0.111342 0.485097
vt 0.148457 0.485097
vt 0.185571 0.485097
vt 0.222685 0.485097
vt 0.259799 0.485097
vt 0.296913 0.485097
vt 0.334027 0.485097
vt 0.371141 0.485097
vt 0.000000 0.545734
vt 0.037114 0.545734
vt 0.074228 0.545734
vt 0.111342 0.545734
vt 0.148457 0.545734
vt 0.185571 0.545734
vt 0.222685 0.545734
vt 0.259799 0.545734
vt 0.296913 0.545734
vt 0.334027 0.545734
vt 0.371141 0.545734
vt 0.000000 0.606371
vt 0.037114 0.606371
vt 0.074228 0.606371
vt 0.111343 0.606371
vt 0.148457 0.606371
vt 0.185571 0.606371
vt 0.222685 0.606371
vt 0.259799 0.606371
vt 0.296913 0.606371
vt 0.334027 0.606371
vt 0.371141 0.606371
vt 0.564695 0.958821
vt 0.661015 0.000000
vt 0.067364 0.669010
vt 0.564695 0.589342
vt 0.661015 0.369479
vt 0.000000 0.669010
vt 0.598377 0.958821
vt 0.598377 0.369479
vt 0.033682 0.669010
vt 0.598377 0.589342
vt 0.598377 0.000000
vt 0.033682 0.669010
vt 0.661015 0.369479
vt 0.518441 0.589341
vt 0.033682 0.606371
vt 0.661015 0.000000
vt 0.518441 0.958821
vt 0.033682 0.606371
vt 0.484759 0.589341
vt 0.723654 0.000000
vt 0.067364 0.606371
vt 0.484759 0.958821
vt 0.723654 0.369479
vt 0.000000 0.606371
vt 0.541568 0.000000
vt 0.206997 0.606371
vt 0.975479 0.589349
vt 0.598377 0.000000
vt 0.206997 0.663180
vt 0.981609 0.000000
vt 0.541568 0.589342
vt 0.406674 0.646159
vt 0.975479 0.000000
vt 0.598377 0.589342
vt 0.406674 0.589350
vt 0.981609 0.589349
vt 0.412804 0.646159
vt 0.371141 0.000000
vt 0.981609 0.000000
vt 0.412804 0.589350
vt 0.427950 0.000000
vt 0.987739 0.589349
vt 0.371141 0.589350
vt 0.213128 0.606371
vt 0.981609 0.589349
vt 0.427950 0.589350
vt 0.213128 0.663180
vt 0.987739 0.000000
vt 0.484759 0.000000
vt 0.400544 0.589350
vt 0.987739 0.589349
vt 0.541568 0.000000
vt 0.400544 0.646159
vt 0.993870 0.000000
vt 0.484759 0.589341
vt 0.394413 0.646159
vt 0.987739 0.000000
vt 0.541568 0.589341
vt 0.394413 0.589350
vt 0.993870 0.589349
vt 0.400544 0.646159
vt 0.427950 0.000000
vt 0.993870 0.000000
vt 0.400544 0.589350
vt 0.484759 0.000000
vt 1.000000 0.589349
vt 0.427950 0.589350
vt 0.406674 0.589350
vt 0.993870 0.589349
vt 0.484759 0.589350
vt 0.406674 0.646159
vt 1.000000 0.000000
vt 0.717823 0.733183
vt 0.219258 0.606371
vt 0.530701 0.589341
vt 0.661016 0.733183
vt 0.219258 0.663179
vt 0.524571 0.953040
vt 0.717823 0.369479
vt 0.213128 0.663180
vt 0.530701 0.953040
vt 0.661015 0.369479
vt 0.213128 0.606371
vt 0.524571 0.589341
vt 0.219258 0.663180
vt 0.598377 0.369479
vt 0.524571 0.953040
vt 0.219258 0.606371
vt 0.655185 0.369479
vt 0.518441 0.589341
vt 0.598377 0.733183
vt 0.225388 0.606371
vt 0.524571 0.589341
vt 0.655185 0.733183
vt 0.225388 0.663179
vt 0.518441 0.953040
vt 0.753618 0.000000
vt 0.183725 0.606371
vt 0.905662 0.599568
vt 0.783581 0.000000
vt 0.183725 0.636335
vt 0.882389 0.000000
vt 0.753618 0.599560
vt 0.160453 0.636335
vt 0.905662 0.000000
vt 0.783581 0.599560
vt 0.160453 0.606371
vt 0.882389 0.599568
vt 0.183725 0.636335
vt 0.723654 0.000000
vt 0.928934 0.000000
vt 0.183725 0.606371
vt 0.753618 0.000000
vt 0.905662 0.599568
vt 0.723654 0.599569
vt 0.206997 0.606371
vt 0.928934 0.599568
vt 0.753618 0.599569
vt 0.206997 0.636335
vt 0.905662 0.000000
vt 0.813545 0.000000
vt 0.113908 0.606371
vt 0.952206 0.000000
vt 0.843508 0.000000
vt 0.113908 0.636335
vt 0.952206 0.000000
vt 0.813545 0.590869
vt 0.067364 0.636335
vt 0.952206 0.590877
vt 0.843508 0.590869
vt 0.067364 0.606371
vt 0.952206 0.590877
vt 0.090636 0.636335
vt 0.783581 0.000000
vt 0.928934 0.590877
vt 0.090636 0.606371
vt 0.813545 0.000000
vt 0.975479 0.590877
vt 0.783581 0.590878
vt 0.137181 0.606371
vt 0.928934 0.000000
vt 0.813545 0.590878
vt 0.137181 0.636335
vt 0.975479 0.000000
vt 0.484759 0.960058
vt 0.090636 0.606371
vt 0.371141 0.960058
vt 0.454796 0.960058
vt 0.090636 0.636335
vt 0.431523 0.589350
vt 0.484759 0.589350
vt 0.137181 0.636335
vt 0.371141 0.589350
vt 0.454796 0.589350
vt 0.137181 0.606371
vt 0.431523 0.960058
vt 0.160453 0.636335
vt 0.534732 0.589342
vt 0.394413 0.589350
vt 0.160453 0.606371
vt 0.564695 0.589342
vt 0.454796 0.960058
vt 0.534732 0.960049
vt 0.113908 0.606371
vt 0.394413 0.960058
vt 0.564695 0.960050
vt 0.113908 0.636335
vt 0.454796 0.589350
vt 0.843508 0.363704
vt 0.225388 0.606371
vt 0.421820 0.953049
vt 0.882389 0.363704
vt 0.225388 0.645252
vt 0.415689 0.589350
vt 0.843508 0.727409
vt 0.231519 0.645252
vt 0.421820 0.589350
vt 0.882389 0.727409
vt 0.231519 0.606371
vt 0.415689 0.953049
vt 0.237649 0.645252
vt 0.843508 0.000000
vt 0.427950 0.589350
vt 0.237649 0.606371
vt 0.882389 0.000000
vt 0.421820 0.953049
vt 0.843508 0.363704
vt 0.231519 0.606371
vt 0.427950 0.953049
vt 0.882390 0.363704
vt 0.231519 0.645252
vt 0.421820 0.589350
s 1
usemtl initialShadingGroup
f 1/1/1 2/2/1 13/13/1 12/12/1
f 2/2/1 3/3/1 14/14/1 13/13/1
f 3/3/1 4/4/1 15/15/1 14/14/1
f 4/4/1 5/5/1 16/16/1 15/15/1
f 5/5/1 6/6/1 17/17/1 16/16/1
f 6/6/1 7/7/1 18/18/1 17/17/1
f 7/7/1 8/8/1 19/19/1 18/18/1
f 8/8/1 9/9/1 20/20/1 19/19/1
f 9/9/1 10/10/1 21/21/1 20/20/1
f 10/10/1 11/11/1 22/22/1 21/21/1
f 12/12/1 13/13/1 24/24/1 23/23/1
f 13/13/1 14/14/1 25/25/1 24/24/1
f 14/14/1 15/15/1 26/26/1 25/25/1
f 15/15/1 16/16/1 27/27/1 26/26/1
f 16/16/1 17/17/1 28/28/1 27/27/1
f 17/17/1 18/18/1 29/29/1 28/28/1
f 18/18/1 19/19/1 30/30/1 29/29/1
f 19/19/1 20/20/1 31/31/1 30/30/1
f 20/20/1 21/21/1 32/32/1 31/31/1
f 21/21/1 22/22/1 33/33/1 32/32/1
f 23/23/1 24/24/1 35/35/1 34/34/1
f 24/24/1 25/25/1 36/36/1 35/35/1
f 25/25/1 26/26/1 37/37/1 36/36/1
f 26/26/1 27/27/1 38/38/1 37/37/1
f 27/27/1 28/28/1 39/39/1 38/38/1
f 28/28/1 29/29/1 40/40/1 39/39/1
f 29/29/1 30/30/1 41/41/1 40/40/1
f 30/30/1 31/31/1 42/42/1 41/41/1
f 31/31/1 32/32/1 43/43/1 42/42/1
f 32/32/1 33/33/1 44/44/1 43/43/1
f 34/34/1 35/35/1 46/46/1 45/45/1
f 35/35/1 36/36/1 47/47/1 46/46/1
f 36/36/1 37/37/1 48/48/1 47/47/1
f 37/37/1 38/38/1 49/49/1 48/48/1
f 38/38/1 39/39/1 50/50/1 49/49/1
f 39/39/1 40/40/1 51/51/1 50/50/1
f 40/40/1 41/41/1 52/52/1 51/51/1
f 41/41/1 42/42/1 53/53/1 52/52/1
f 42/42/1 43/43/1 54/54/1 53/53/1
f 43/43/1 44/44/1 55/55/1 54/54/1
f 45/45/1 46/46/1 57/57/1 56/56/1
f 46/46/1 47/47/1 58/58/1 57/57/1
f 47/47/1 48/48/1 59/59/1 58/58/1
f 48/48/1 49/49/1 60/60/1 59/59/1
f 49/49/1 50/50/1 61/61/1 60/60/1
f 50/50/1 51/51/1 62/62/1 61/61/1
f 51/51/1 52/52/1 63/63/1 62/62/1
f 52/52/1 53/53/1 64/64/1 63/63/1
f 53/53/1 54/54/1 65/65/1 64/64/1
f 54/54/1 55/55/1 66/66/1 65/65/1
f 56/56/1 57/57/1 68/68/1 67/67/1
f 57/57/1 58/58/1 69/69/1 68/68/1
f 58/58/1 59/59/1 70/70/1 69/69/1
f 59/59/1 60/60/1 71/71/1 70/70/1
f 60/60/1 61/61/1 72/72/1 71/71/1
f 61/61/1 62/62/1 73/73/1 72/72/1
f 62/62/1 63/63/1 74/74/1 73/73/1
f 63/63/1 64/64/1 75/75/1 74/74/1
f 64/64/1 65/65/1 76/76/1 75/75/1
f 65/65/1 66/66/1 77/77/1 76/76/1
f 67/67/1 68/68/1 79/79/1 78/78/1
f 68/68/1 69/69/1 80/80/1 79/79/1
f 69/69/1 70/70/1 81/81/1 80/80/1
f 70/70/1 71/71/1 82/82/1 81/81/1
f 71/71/1 72/72/1 83/83/1 82/82/1
f 72/72/1 73/73/1 84/84/1 83/83/1
f 73/73/1 74/74/1 85/85/1 84/84/1
f 74/74/1 75/75/1 86/86/1 85/85/1
f 75/75/1 76/76/1 87/87/1 86/86/1
f 76/76/1 77/77/1 88/88/1 87/87/1
f 78/78/1 79/79/1 90/90/1 89/89/1
f 79/79/1 80/80/1 91/91/1 90/90/1
f 80/80/1 81/81/1 92/92/1 91/91/1
f 81/81/1 82/82/1 93/93/1 92/92/1
f 82/82/1 83/83/1 94/94/1 93/93/1
f 83/83/1 84/84/1 95/95/1 94/94/1
f 84/84/1 85/85/1 96/96/1 95/95/1
f 85/85/1 86/86/1 97/97/1 96/96/1
f 86/86/1 87/87/1 98/98/1 97/97/1
f 87/87/1 88/88/1 99/99/1 98/98/1
f 89/89/1 90/90/1 101/101/1 100/100/1
f 90/90/1 91/91/1 102/102/1 101/101/1
f 91/91/1 92/92/1 103/103/1 102/102/1
f 92/92/1 93/93/1 104/104/1 103/103/1
f 93/93/1 94/94/1 105/105/1 104/104/1
f 94/94/1 95/95/1 106/106/1 105/105/1
f 95/95/1 96/96/1 107/107/1 106/106/1
f 96/96/1 97/97/1 108/108/1 107/107/1
f 97/97/1 98/98/1 109/109/1 108/108/1
f 98/98/1 99/99/1 110/110/1 109/109/1
f 100/100/1 101/101/1 112/112/1 111/111/1
f 101/101/1 102/102/1 113/113/1 112/112/1
f 102/102/1 103/103/1 114/114/1 113/113/1
f 103/103/1 104/104/1 115/115/1 114/114/1
f 104/104/1 105/105/1 116/116/1 115/115/1
f 105/105/1 106/106/1 117/117/1 116/116/1
f 106/106/1 107/107/1 118/118/1 117/117/1
f 107/107/1 108/108/1 119/119/1 118/118/1
f 108/108/1 109/109/1 120/120/1 119/119/1
f 109/109/1 110/110/1 121/121/1 120/120/1
s 0
f 122/122/2 123/125/2 125/131/2 124/128/2
f 124/129/3 125/132/3 127/137/3 126/134/3
f 126/135/4 127/138/4 129/143/4 128/140/4
f 128/141/5 129/144/5 123/126/5 122/123/5
f 123/127/6 129/145/6 127/139/6 125/133/6
f 128/142/7 122/124/7 124/130/7 126/136/7
f 130/146/2 131/149/2 133/155/2 132/152/2
f 132/153/3 133/156/3 135/161/3 134/158/3
f 134/159/4 135/162/4 137/167/4 136/164/4
f 136/165/5 137/168/5 131/150/5 130/147/5
f 131/151/6 137/169/6 135/163/6 133/157/6
f 136/166/7 130/148/7 132/154/7 134/160/7
f 138/170/2 139/173/2 141/179/2 140/176/2
f 140/177/3 141/180/3 143/185/3 142/182/3
f 142/183/4 143/186/4 145/191/4 144/188/4
f 144/189/5 145/192/5 139/174/5 138/171/5
f 139/175/6 145/193/6 143/187/6 141/181/6
f 144/190/7 138/172/7 140/178/7 142/184/7
f 146/194/2 147/197/2 149/203/2 148/200/2
f 148/201/8 149/204/8 151/209/8 150/206/8
f 150/207/4 151/210/4 153/215/4 152/212/4
f 152/213/9 153/216/9 147/198/9 146/195/9
f 147/199/10 153/217/10 151/211/10 149/205/10
f 152/214/11 146/196/11 148/202/11 150/208/11
f 154/218/2 155/221/2 157/227/2 156/224/2
f 156/225/3 157/228/3 159/233/3 158/230/3
f 158/231/4 159/234/4 161/239/4 160/236/4
f 160/237/5 161/240/5 155/222/5 154/219/5
f 155/223/6 161/241/6 159/235/6 157/229/6
f 160/238/7 154/220/7 156/226/7 158/232/7
f 162/242/2 163/245/2 165/251/2 164/248/2
f 164/249/3 165/252/3 167/257/3 166/254/3
f 166/255/4 167/258/4 169/263/4 168/260/4
f 168/261/5 169/264/5 163/246/5 162/243/5
f 163/247/6 169/265/6 167/259/6 165/253/6
f 168/262/7 162/244/7 164/250/7 166/256/7
f 170/266/2 171/269/2 173/275/2 172/272/2
f 172/273/12 173/276/12 175/281/12 174/278/12
f 174/279/4 175/282/4 177/287/4 176/284/4
f 176/285/13 177/288/13 171/270/13 170/267/13
f 171/271/14 177/289/14 175/283/14 173/277/14
f 176/286/15 170/268/15 172/274/15 174/280/15
f 178/290/2 179/293/2 181/299/2 180/296/2
f 180/297/8 181/300/8 183/305/8 182/302/8
f 182/303/4 183/306/4 185/311/4 184/308/4
f 184/309/9 185/312/9 179/294/9 178/291/9
f 179/295/10 185/313/10 183/307/10 181/301/10
f 184/310/11 178/292/11 180/298/11 182/304/11
